<svg width="91" height="90" viewBox="0 0 91 90" fill="none" xmlns="http://www.w3.org/2000/svg">
<g filter="url(#filter0_d_108_727)">
<rect x="49.563" y="5.31714" width="3.7533" height="51.6079" transform="rotate(45 49.563 5.31714)" fill="url(#paint0_linear_108_727)"/>
<rect x="19.2847" y="7.50659" width="1.57208" height="21.6161" transform="rotate(45 19.2847 7.50659)" fill="url(#paint1_linear_108_727)"/>
<rect x="70.3286" width="1.57208" height="21.6161" transform="rotate(45 70.3286 0)" fill="url(#paint2_linear_108_727)"/>
<rect x="86.2764" y="41.8096" width="3.7533" height="51.6079" transform="rotate(135 86.2764 41.8096)" fill="url(#paint3_linear_108_727)"/>
<rect x="34.6626" y="22.7915" width="1.57208" height="21.6161" transform="rotate(135 34.6626 22.7915)" fill="url(#paint4_linear_108_727)"/>
<rect x="85.7061" y="15.2849" width="1.57208" height="21.6161" transform="rotate(135 85.7061 15.2849)" fill="url(#paint5_linear_108_727)"/>
<rect x="54.7559" y="47.3613" width="6.25551" height="33.7797" transform="rotate(90 54.7559 47.3613)" fill="url(#paint6_linear_108_727)"/>
<rect x="55.6235" y="81.2864" width="6.25551" height="32.2073" transform="rotate(-154.301 55.6235 81.2864)" fill="url(#paint7_linear_108_727)"/>
<rect x="25.9805" y="68.0044" width="6.25551" height="15.9515" transform="rotate(-90 25.9805 68.0044)" fill="url(#paint8_linear_108_727)"/>
<rect x="53.5049" y="53.6167" width="6.25551" height="15.9515" transform="rotate(-90 53.5049 53.6167)" fill="url(#paint9_linear_108_727)"/>
<rect x="42.5576" y="75.1982" width="6.25551" height="15.9515" transform="rotate(90 42.5576 75.1982)" fill="url(#paint10_linear_108_727)"/>
<rect x="70.3945" y="75.1982" width="6.25551" height="20.0176" transform="rotate(90 70.3945 75.1982)" fill="url(#paint11_linear_108_727)"/>
<rect x="20.3506" y="47.6741" width="6.25551" height="33.7797" fill="url(#paint12_linear_108_727)"/>
</g>
<defs>
<filter id="filter0_d_108_727" x="0" y="0" width="90.2764" height="89.4539" filterUnits="userSpaceOnUse" color-interpolation-filters="sRGB">
<feFlood flood-opacity="0" result="BackgroundImageFix"/>
<feColorMatrix in="SourceAlpha" type="matrix" values="0 0 0 0 0 0 0 0 0 0 0 0 0 0 0 0 0 0 127 0" result="hardAlpha"/>
<feOffset dy="4"/>
<feGaussianBlur stdDeviation="2"/>
<feComposite in2="hardAlpha" operator="out"/>
<feColorMatrix type="matrix" values="0 0 0 0 0 0 0 0 0 0 0 0 0 0 0 0 0 0 0.25 0"/>
<feBlend mode="normal" in2="BackgroundImageFix" result="effect1_dropShadow_108_727"/>
<feBlend mode="normal" in="SourceGraphic" in2="effect1_dropShadow_108_727" result="shape"/>
</filter>
<linearGradient id="paint0_linear_108_727" x1="51.4396" y1="5.31714" x2="51.4396" y2="56.9251" gradientUnits="userSpaceOnUse">
<stop stop-color="#F6C80C"/>
<stop offset="0.855" stop-color="#907507"/>
</linearGradient>
<linearGradient id="paint1_linear_108_727" x1="20.0707" y1="7.50659" x2="20.0707" y2="29.1227" gradientUnits="userSpaceOnUse">
<stop stop-color="#F6C80C"/>
<stop offset="0.855" stop-color="#907507"/>
</linearGradient>
<linearGradient id="paint2_linear_108_727" x1="71.1147" y1="0" x2="71.1147" y2="21.6161" gradientUnits="userSpaceOnUse">
<stop stop-color="#F6C80C"/>
<stop offset="0.855" stop-color="#907507"/>
</linearGradient>
<linearGradient id="paint3_linear_108_727" x1="88.153" y1="41.8096" x2="88.153" y2="93.4175" gradientUnits="userSpaceOnUse">
<stop stop-color="#F6C80C"/>
<stop offset="0.855" stop-color="#907507"/>
</linearGradient>
<linearGradient id="paint4_linear_108_727" x1="35.4486" y1="22.7915" x2="35.4486" y2="44.4076" gradientUnits="userSpaceOnUse">
<stop stop-color="#F6C80C"/>
<stop offset="0.855" stop-color="#907507"/>
</linearGradient>
<linearGradient id="paint5_linear_108_727" x1="86.4921" y1="15.2849" x2="86.4921" y2="36.901" gradientUnits="userSpaceOnUse">
<stop stop-color="#F6C80C"/>
<stop offset="0.855" stop-color="#907507"/>
</linearGradient>
<linearGradient id="paint6_linear_108_727" x1="57.8836" y1="47.3613" x2="57.8836" y2="81.1411" gradientUnits="userSpaceOnUse">
<stop stop-color="#F6C80C"/>
<stop offset="0.855" stop-color="#907507"/>
</linearGradient>
<linearGradient id="paint7_linear_108_727" x1="58.7513" y1="81.2864" x2="58.7513" y2="113.494" gradientUnits="userSpaceOnUse">
<stop stop-color="#F6C80C"/>
<stop offset="0.855" stop-color="#907507"/>
</linearGradient>
<linearGradient id="paint8_linear_108_727" x1="29.1082" y1="68.0044" x2="29.1082" y2="83.9559" gradientUnits="userSpaceOnUse">
<stop stop-color="#F6C80C"/>
<stop offset="0.855" stop-color="#907507"/>
</linearGradient>
<linearGradient id="paint9_linear_108_727" x1="56.6326" y1="53.6167" x2="56.6326" y2="69.5682" gradientUnits="userSpaceOnUse">
<stop stop-color="#F6C80C"/>
<stop offset="0.855" stop-color="#907507"/>
</linearGradient>
<linearGradient id="paint10_linear_108_727" x1="45.6854" y1="75.1982" x2="45.6854" y2="91.1498" gradientUnits="userSpaceOnUse">
<stop stop-color="#F6C80C"/>
<stop offset="0.855" stop-color="#907507"/>
</linearGradient>
<linearGradient id="paint11_linear_108_727" x1="73.5223" y1="75.1982" x2="73.5223" y2="95.2159" gradientUnits="userSpaceOnUse">
<stop stop-color="#F6C80C"/>
<stop offset="0.855" stop-color="#907507"/>
</linearGradient>
<linearGradient id="paint12_linear_108_727" x1="23.4783" y1="47.6741" x2="23.4783" y2="81.4538" gradientUnits="userSpaceOnUse">
<stop stop-color="#F6C80C"/>
<stop offset="0.855" stop-color="#907507"/>
</linearGradient>
</defs>
</svg>
